<mxfile host="app.diagrams.net" modified="2022-03-25T17:19:40.634Z" agent="5.0 (Windows NT 10.0; WOW64) AppleWebKit/537.36 (KHTML, like Gecko) Chrome/86.0.4240.198 Safari/537.36" etag="1yKz6FsBNTl6HZl6cvdP" version="17.2.3" type="github">
  <diagram id="Rfiw0JzNWFwcoG-SYALL" name="Page-1">
    <mxGraphModel dx="1267" dy="1033" grid="1" gridSize="10" guides="1" tooltips="1" connect="1" arrows="1" fold="1" page="1" pageScale="1" pageWidth="827" pageHeight="1169" math="0" shadow="0">
      <root>
        <mxCell id="0" />
        <mxCell id="1" parent="0" />
        <mxCell id="mvUg5sP5wKKFMvpWZlwc-2" value="前端服务器" style="rounded=1;whiteSpace=wrap;html=1;" vertex="1" parent="1">
          <mxGeometry x="189.25" y="150" width="120" height="60" as="geometry" />
        </mxCell>
        <mxCell id="mvUg5sP5wKKFMvpWZlwc-3" value="后端服务器" style="rounded=1;whiteSpace=wrap;html=1;" vertex="1" parent="1">
          <mxGeometry x="189.25" y="310" width="120" height="60" as="geometry" />
        </mxCell>
        <mxCell id="mvUg5sP5wKKFMvpWZlwc-4" value="谷歌插件" style="whiteSpace=wrap;html=1;aspect=fixed;" vertex="1" parent="1">
          <mxGeometry x="433.25" y="140" width="80" height="80" as="geometry" />
        </mxCell>
        <mxCell id="mvUg5sP5wKKFMvpWZlwc-5" value="区块链" style="ellipse;shape=cloud;whiteSpace=wrap;html=1;" vertex="1" parent="1">
          <mxGeometry x="629.25" y="140" width="120" height="80" as="geometry" />
        </mxCell>
        <mxCell id="mvUg5sP5wKKFMvpWZlwc-7" value="" style="endArrow=classic;startArrow=classic;html=1;rounded=0;" edge="1" parent="1">
          <mxGeometry width="50" height="50" relative="1" as="geometry">
            <mxPoint x="539.25" y="179.5" as="sourcePoint" />
            <mxPoint x="609.25" y="179.5" as="targetPoint" />
          </mxGeometry>
        </mxCell>
        <mxCell id="mvUg5sP5wKKFMvpWZlwc-8" value="" style="endArrow=classic;startArrow=classic;html=1;rounded=0;" edge="1" parent="1">
          <mxGeometry width="50" height="50" relative="1" as="geometry">
            <mxPoint x="329.25" y="180" as="sourcePoint" />
            <mxPoint x="399.25" y="180" as="targetPoint" />
          </mxGeometry>
        </mxCell>
        <mxCell id="mvUg5sP5wKKFMvpWZlwc-9" value="" style="endArrow=classic;startArrow=classic;html=1;rounded=0;" edge="1" parent="1">
          <mxGeometry width="50" height="50" relative="1" as="geometry">
            <mxPoint x="249.25" y="290" as="sourcePoint" />
            <mxPoint x="249.25" y="230" as="targetPoint" />
          </mxGeometry>
        </mxCell>
        <mxCell id="mvUg5sP5wKKFMvpWZlwc-10" value="中心化服务器，存储的数据如：&lt;br&gt;1、分享文件列表&lt;br&gt;2、用户管理&lt;br&gt;3、创建时间、用户状态" style="text;html=1;strokeColor=none;fillColor=none;align=center;verticalAlign=middle;whiteSpace=wrap;rounded=0;" vertex="1" parent="1">
          <mxGeometry x="159.25" y="360" width="200" height="90" as="geometry" />
        </mxCell>
        <mxCell id="mvUg5sP5wKKFMvpWZlwc-11" value="文件加密生成的文件上传区块链" style="text;html=1;strokeColor=none;fillColor=none;align=center;verticalAlign=middle;whiteSpace=wrap;rounded=0;" vertex="1" parent="1">
          <mxGeometry x="634.25" y="230" width="110" height="30" as="geometry" />
        </mxCell>
        <mxCell id="mvUg5sP5wKKFMvpWZlwc-12" value="4.10号以前完成&lt;br&gt;【谷歌插件】" style="shape=note;whiteSpace=wrap;html=1;backgroundOutline=1;darkOpacity=0.05;" vertex="1" parent="1">
          <mxGeometry x="37" y="10" width="100" height="100" as="geometry" />
        </mxCell>
        <mxCell id="mvUg5sP5wKKFMvpWZlwc-13" value="助记词组" style="whiteSpace=wrap;html=1;aspect=fixed;" vertex="1" parent="1">
          <mxGeometry x="427.5" y="510" width="80" height="80" as="geometry" />
        </mxCell>
        <mxCell id="mvUg5sP5wKKFMvpWZlwc-15" value="钱包私钥&lt;br&gt;生成" style="whiteSpace=wrap;html=1;aspect=fixed;" vertex="1" parent="1">
          <mxGeometry x="617.5" y="510" width="80" height="80" as="geometry" />
        </mxCell>
        <mxCell id="mvUg5sP5wKKFMvpWZlwc-16" value="" style="endArrow=classic;html=1;rounded=0;" edge="1" parent="1">
          <mxGeometry width="50" height="50" relative="1" as="geometry">
            <mxPoint x="327.5" y="549.5" as="sourcePoint" />
            <mxPoint x="397.5" y="550" as="targetPoint" />
          </mxGeometry>
        </mxCell>
        <mxCell id="mvUg5sP5wKKFMvpWZlwc-17" value="" style="endArrow=classic;html=1;rounded=0;" edge="1" parent="1">
          <mxGeometry width="50" height="50" relative="1" as="geometry">
            <mxPoint x="521.5" y="549.5" as="sourcePoint" />
            <mxPoint x="591.5" y="549.5" as="targetPoint" />
          </mxGeometry>
        </mxCell>
        <mxCell id="mvUg5sP5wKKFMvpWZlwc-19" value="种子" style="text;html=1;strokeColor=none;fillColor=none;align=center;verticalAlign=middle;whiteSpace=wrap;rounded=0;" vertex="1" parent="1">
          <mxGeometry x="527.5" y="510" width="60" height="30" as="geometry" />
        </mxCell>
        <mxCell id="mvUg5sP5wKKFMvpWZlwc-20" value="推送到&lt;br&gt;谷歌插件" style="text;html=1;strokeColor=none;fillColor=none;align=center;verticalAlign=middle;whiteSpace=wrap;rounded=0;" vertex="1" parent="1">
          <mxGeometry x="327.5" y="510" width="60" height="30" as="geometry" />
        </mxCell>
        <mxCell id="mvUg5sP5wKKFMvpWZlwc-21" value="策略的公私密钥，经过插件离线存储在本地" style="text;html=1;strokeColor=none;fillColor=none;align=center;verticalAlign=middle;whiteSpace=wrap;rounded=0;" vertex="1" parent="1">
          <mxGeometry x="296.25" y="90" width="124" height="50" as="geometry" />
        </mxCell>
        <mxCell id="mvUg5sP5wKKFMvpWZlwc-22" value="策略" style="rounded=1;whiteSpace=wrap;html=1;" vertex="1" parent="1">
          <mxGeometry x="827" y="155" width="120" height="60" as="geometry" />
        </mxCell>
        <mxCell id="mvUg5sP5wKKFMvpWZlwc-23" value="" style="shape=flexArrow;endArrow=classic;html=1;rounded=0;" edge="1" parent="1">
          <mxGeometry width="50" height="50" relative="1" as="geometry">
            <mxPoint x="967" y="165" as="sourcePoint" />
            <mxPoint x="1057" y="155" as="targetPoint" />
          </mxGeometry>
        </mxCell>
        <mxCell id="mvUg5sP5wKKFMvpWZlwc-24" value="导入功能" style="ellipse;whiteSpace=wrap;html=1;aspect=fixed;" vertex="1" parent="1">
          <mxGeometry x="1081" y="95" width="80" height="80" as="geometry" />
        </mxCell>
        <mxCell id="mvUg5sP5wKKFMvpWZlwc-25" value="导出功能" style="ellipse;whiteSpace=wrap;html=1;aspect=fixed;" vertex="1" parent="1">
          <mxGeometry x="1083" y="185" width="80" height="80" as="geometry" />
        </mxCell>
        <mxCell id="mvUg5sP5wKKFMvpWZlwc-26" value="" style="shape=flexArrow;endArrow=classic;html=1;rounded=0;" edge="1" parent="1">
          <mxGeometry width="50" height="50" relative="1" as="geometry">
            <mxPoint x="967" y="205" as="sourcePoint" />
            <mxPoint x="1057" y="215" as="targetPoint" />
          </mxGeometry>
        </mxCell>
        <mxCell id="mvUg5sP5wKKFMvpWZlwc-27" value="钱包" style="rounded=1;whiteSpace=wrap;html=1;" vertex="1" parent="1">
          <mxGeometry x="800" y="590" width="120" height="60" as="geometry" />
        </mxCell>
        <mxCell id="mvUg5sP5wKKFMvpWZlwc-28" value="" style="shape=flexArrow;endArrow=classic;html=1;rounded=0;" edge="1" parent="1">
          <mxGeometry width="50" height="50" relative="1" as="geometry">
            <mxPoint x="941" y="600" as="sourcePoint" />
            <mxPoint x="1031" y="580" as="targetPoint" />
          </mxGeometry>
        </mxCell>
        <mxCell id="mvUg5sP5wKKFMvpWZlwc-29" value="解锁锁定" style="ellipse;whiteSpace=wrap;html=1;aspect=fixed;" vertex="1" parent="1">
          <mxGeometry x="1043" y="630" width="80" height="80" as="geometry" />
        </mxCell>
        <mxCell id="mvUg5sP5wKKFMvpWZlwc-30" value="" style="shape=flexArrow;endArrow=classic;html=1;rounded=0;" edge="1" parent="1">
          <mxGeometry width="50" height="50" relative="1" as="geometry">
            <mxPoint x="940" y="640" as="sourcePoint" />
            <mxPoint x="1036" y="660" as="targetPoint" />
          </mxGeometry>
        </mxCell>
        <mxCell id="mvUg5sP5wKKFMvpWZlwc-31" value="本地&lt;br&gt;hash校验" style="ellipse;whiteSpace=wrap;html=1;aspect=fixed;" vertex="1" parent="1">
          <mxGeometry x="1043" y="520" width="80" height="80" as="geometry" />
        </mxCell>
        <mxCell id="mvUg5sP5wKKFMvpWZlwc-32" value="私钥" style="whiteSpace=wrap;html=1;aspect=fixed;" vertex="1" parent="1">
          <mxGeometry x="1200" y="520" width="80" height="80" as="geometry" />
        </mxCell>
        <mxCell id="mvUg5sP5wKKFMvpWZlwc-33" value="" style="endArrow=classic;html=1;rounded=0;" edge="1" parent="1">
          <mxGeometry width="50" height="50" relative="1" as="geometry">
            <mxPoint x="1139" y="560" as="sourcePoint" />
            <mxPoint x="1190" y="560" as="targetPoint" />
            <Array as="points">
              <mxPoint x="1179" y="560" />
            </Array>
          </mxGeometry>
        </mxCell>
        <mxCell id="mvUg5sP5wKKFMvpWZlwc-34" value="生成" style="text;html=1;strokeColor=none;fillColor=none;align=center;verticalAlign=middle;whiteSpace=wrap;rounded=0;" vertex="1" parent="1">
          <mxGeometry x="1130" y="520" width="60" height="30" as="geometry" />
        </mxCell>
        <mxCell id="mvUg5sP5wKKFMvpWZlwc-35" value="类比 “书签“" style="text;html=1;strokeColor=none;fillColor=none;align=center;verticalAlign=middle;whiteSpace=wrap;rounded=0;" vertex="1" parent="1">
          <mxGeometry x="957" y="105" width="70" height="30" as="geometry" />
        </mxCell>
        <mxCell id="mvUg5sP5wKKFMvpWZlwc-36" value="系统生成" style="rounded=1;whiteSpace=wrap;html=1;" vertex="1" parent="1">
          <mxGeometry x="182.5" y="520" width="120" height="60" as="geometry" />
        </mxCell>
        <mxCell id="mvUg5sP5wKKFMvpWZlwc-37" value="策略A" style="rounded=1;whiteSpace=wrap;html=1;" vertex="1" parent="1">
          <mxGeometry x="380" y="855" width="120" height="60" as="geometry" />
        </mxCell>
        <mxCell id="mvUg5sP5wKKFMvpWZlwc-38" value="4.10号~4月底完成&lt;br&gt;【前端分享】" style="shape=note;whiteSpace=wrap;html=1;backgroundOutline=1;darkOpacity=0.05;" vertex="1" parent="1">
          <mxGeometry x="30" y="700" width="110" height="90" as="geometry" />
        </mxCell>
        <mxCell id="mvUg5sP5wKKFMvpWZlwc-39" value="策略B" style="rounded=1;whiteSpace=wrap;html=1;" vertex="1" parent="1">
          <mxGeometry x="380" y="975" width="120" height="60" as="geometry" />
        </mxCell>
        <mxCell id="mvUg5sP5wKKFMvpWZlwc-41" value="同一个文件 ①" style="shape=card;whiteSpace=wrap;html=1;" vertex="1" parent="1">
          <mxGeometry x="140" y="905" width="80" height="100" as="geometry" />
        </mxCell>
        <mxCell id="mvUg5sP5wKKFMvpWZlwc-42" value="" style="endArrow=classic;html=1;rounded=0;" edge="1" parent="1">
          <mxGeometry width="50" height="50" relative="1" as="geometry">
            <mxPoint x="240" y="945" as="sourcePoint" />
            <mxPoint x="340" y="905" as="targetPoint" />
          </mxGeometry>
        </mxCell>
        <mxCell id="mvUg5sP5wKKFMvpWZlwc-43" value="" style="endArrow=classic;html=1;rounded=0;" edge="1" parent="1">
          <mxGeometry width="50" height="50" relative="1" as="geometry">
            <mxPoint x="245" y="970" as="sourcePoint" />
            <mxPoint x="345" y="1000" as="targetPoint" />
          </mxGeometry>
        </mxCell>
        <mxCell id="mvUg5sP5wKKFMvpWZlwc-45" value="" style="endArrow=classic;html=1;rounded=0;" edge="1" parent="1">
          <mxGeometry width="50" height="50" relative="1" as="geometry">
            <mxPoint x="530" y="885" as="sourcePoint" />
            <mxPoint x="720" y="885" as="targetPoint" />
          </mxGeometry>
        </mxCell>
        <mxCell id="mvUg5sP5wKKFMvpWZlwc-46" value="" style="endArrow=classic;html=1;rounded=0;" edge="1" parent="1">
          <mxGeometry width="50" height="50" relative="1" as="geometry">
            <mxPoint x="540" y="1005" as="sourcePoint" />
            <mxPoint x="720" y="1004" as="targetPoint" />
          </mxGeometry>
        </mxCell>
        <mxCell id="mvUg5sP5wKKFMvpWZlwc-47" value="α 同学" style="whiteSpace=wrap;html=1;aspect=fixed;" vertex="1" parent="1">
          <mxGeometry x="760" y="845" width="80" height="80" as="geometry" />
        </mxCell>
        <mxCell id="mvUg5sP5wKKFMvpWZlwc-48" value="β 同学" style="whiteSpace=wrap;html=1;aspect=fixed;" vertex="1" parent="1">
          <mxGeometry x="760" y="965" width="80" height="80" as="geometry" />
        </mxCell>
        <mxCell id="mvUg5sP5wKKFMvpWZlwc-49" value="第二个文件②" style="shape=card;whiteSpace=wrap;html=1;" vertex="1" parent="1">
          <mxGeometry x="557.5" y="740" width="83.5" height="90" as="geometry" />
        </mxCell>
        <mxCell id="mvUg5sP5wKKFMvpWZlwc-50" value="第二个文件②" style="shape=card;whiteSpace=wrap;html=1;" vertex="1" parent="1">
          <mxGeometry x="557.5" y="1065" width="78.5" height="85" as="geometry" />
        </mxCell>
        <mxCell id="mvUg5sP5wKKFMvpWZlwc-51" value="" style="endArrow=classic;html=1;rounded=0;" edge="1" parent="1">
          <mxGeometry width="50" height="50" relative="1" as="geometry">
            <mxPoint x="450" y="835" as="sourcePoint" />
            <mxPoint x="530" y="795" as="targetPoint" />
          </mxGeometry>
        </mxCell>
        <mxCell id="mvUg5sP5wKKFMvpWZlwc-52" value="唯一开放给" style="text;html=1;strokeColor=none;fillColor=none;align=center;verticalAlign=middle;whiteSpace=wrap;rounded=0;" vertex="1" parent="1">
          <mxGeometry x="580" y="855" width="90" height="30" as="geometry" />
        </mxCell>
        <mxCell id="mvUg5sP5wKKFMvpWZlwc-53" value="唯一开放给" style="text;html=1;strokeColor=none;fillColor=none;align=center;verticalAlign=middle;whiteSpace=wrap;rounded=0;" vertex="1" parent="1">
          <mxGeometry x="580" y="970" width="90" height="30" as="geometry" />
        </mxCell>
        <mxCell id="mvUg5sP5wKKFMvpWZlwc-54" value="" style="endArrow=classic;html=1;rounded=0;" edge="1" parent="1">
          <mxGeometry width="50" height="50" relative="1" as="geometry">
            <mxPoint x="459" y="1055" as="sourcePoint" />
            <mxPoint x="540" y="1105" as="targetPoint" />
          </mxGeometry>
        </mxCell>
        <mxCell id="mvUg5sP5wKKFMvpWZlwc-56" value="假如新增" style="text;html=1;strokeColor=none;fillColor=none;align=center;verticalAlign=middle;whiteSpace=wrap;rounded=0;" vertex="1" parent="1">
          <mxGeometry x="464" y="780" width="60" height="30" as="geometry" />
        </mxCell>
        <mxCell id="mvUg5sP5wKKFMvpWZlwc-57" value="假如新增" style="text;html=1;strokeColor=none;fillColor=none;align=center;verticalAlign=middle;whiteSpace=wrap;rounded=0;" vertex="1" parent="1">
          <mxGeometry x="490" y="1045" width="60" height="30" as="geometry" />
        </mxCell>
        <mxCell id="mvUg5sP5wKKFMvpWZlwc-61" value="" style="endArrow=classic;html=1;rounded=0;" edge="1" parent="1">
          <mxGeometry width="50" height="50" relative="1" as="geometry">
            <mxPoint x="660" y="805" as="sourcePoint" />
            <mxPoint x="741.75" y="840" as="targetPoint" />
          </mxGeometry>
        </mxCell>
        <mxCell id="mvUg5sP5wKKFMvpWZlwc-62" value="唯一可见" style="text;html=1;strokeColor=none;fillColor=none;align=center;verticalAlign=middle;whiteSpace=wrap;rounded=0;" vertex="1" parent="1">
          <mxGeometry x="671.75" y="780" width="60" height="30" as="geometry" />
        </mxCell>
        <mxCell id="mvUg5sP5wKKFMvpWZlwc-63" value="" style="endArrow=classic;html=1;rounded=0;" edge="1" parent="1">
          <mxGeometry width="50" height="50" relative="1" as="geometry">
            <mxPoint x="660" y="1115" as="sourcePoint" />
            <mxPoint x="739.25" y="1067.5" as="targetPoint" />
          </mxGeometry>
        </mxCell>
        <mxCell id="mvUg5sP5wKKFMvpWZlwc-64" value="唯一可见" style="text;html=1;strokeColor=none;fillColor=none;align=center;verticalAlign=middle;whiteSpace=wrap;rounded=0;" vertex="1" parent="1">
          <mxGeometry x="660" y="1055" width="60" height="30" as="geometry" />
        </mxCell>
        <mxCell id="mvUg5sP5wKKFMvpWZlwc-67" style="edgeStyle=orthogonalEdgeStyle;rounded=0;orthogonalLoop=1;jettySize=auto;html=1;exitX=0.5;exitY=1;exitDx=0;exitDy=0;" edge="1" parent="1" source="mvUg5sP5wKKFMvpWZlwc-57" target="mvUg5sP5wKKFMvpWZlwc-57">
          <mxGeometry relative="1" as="geometry" />
        </mxCell>
        <mxCell id="mvUg5sP5wKKFMvpWZlwc-69" value="一个策略唯一&lt;br&gt;对应一个人" style="text;html=1;strokeColor=none;fillColor=none;align=center;verticalAlign=middle;whiteSpace=wrap;rounded=0;" vertex="1" parent="1">
          <mxGeometry x="232.5" y="855" width="125" height="30" as="geometry" />
        </mxCell>
        <mxCell id="mvUg5sP5wKKFMvpWZlwc-71" value="策略，只有在上传文件与申请人达成联系时创建" style="text;html=1;strokeColor=none;fillColor=none;align=center;verticalAlign=middle;whiteSpace=wrap;rounded=0;" vertex="1" parent="1">
          <mxGeometry x="228.5" y="1005" width="141.5" height="60" as="geometry" />
        </mxCell>
        <mxCell id="mvUg5sP5wKKFMvpWZlwc-73" value="FileReader&lt;br&gt;读取上传文件为二进制字符流" style="ellipse;whiteSpace=wrap;html=1;aspect=fixed;" vertex="1" parent="1">
          <mxGeometry x="820" y="410" width="80" height="80" as="geometry" />
        </mxCell>
        <mxCell id="mvUg5sP5wKKFMvpWZlwc-74" value="" style="shape=flexArrow;endArrow=classic;html=1;rounded=0;" edge="1" parent="1">
          <mxGeometry width="50" height="50" relative="1" as="geometry">
            <mxPoint x="860" y="504" as="sourcePoint" />
            <mxPoint x="859.75" y="579" as="targetPoint" />
            <Array as="points">
              <mxPoint x="860" y="534" />
            </Array>
          </mxGeometry>
        </mxCell>
        <mxCell id="mvUg5sP5wKKFMvpWZlwc-75" value="私钥加密" style="text;html=1;strokeColor=none;fillColor=none;align=center;verticalAlign=middle;whiteSpace=wrap;rounded=0;" vertex="1" parent="1">
          <mxGeometry x="880" y="520" width="60" height="30" as="geometry" />
        </mxCell>
      </root>
    </mxGraphModel>
  </diagram>
</mxfile>
